<svg xmlns="http://www.w3.org/2000/svg" xmlns:xlink="http://www.w3.org/1999/xlink" preserveAspectRatio="xMidYMid meet" version="1.0" viewBox="79.0 72.0 330.1 361.8" zoomAndPan="magnify" style="fill: rgb(225, 255, 106);" original_string_length="9758"><g id="__id22_s0le9fjgt"><path d="M333.2,190.7c0.6-1.6,0.8-2.5,1.2-3.3c1.1-2.4,2.1-4.3,5-5.8c3.4-1.8,5.8-5.5,8.6-8.4c0.4-0.4,0.6-1.1,1-1.2 c1.2-0.5,1.5-2.6,3.2-2.1c1.7,0.5,1.5,2.3,1.9,3.6c0.3,1.1,0.7,2.1,1.1,3.2c0.5,1.3,1.2,2.5,2.8,2.6c1.6,0.1,1.9-1.2,2.4-2.4 c2-4.2,5.1-7.5,9.3-9.8c2.1-1.2,4.3-2.4,5.4-4.8c0.6-1.3,1.7-2.2,3.6-1.4c2.6,1.1,4.6-0.1,6.3-2.1c2-2.4,3.8-4.9,6.8-6.2 c2-0.8,1.8-2.6,1.7-4.3c-0.2-6.9,5.2-9.1,9.9-8c3.1,0.7,5.7,4.6,5.6,7.7c-0.1,2.8-2.9,6.2-5.9,6.7c-3.8,0.7-5.8,3-7,6.4 c-1,2.7-3.8,3.7-5.6,5.8c-7.2,9-14.3,18-22,26.5c-7.4,8.2-14.4,16.6-21.6,25c-1.5,1.8-2.1,3.3-1.4,5.7c2.8-2.1,4.3-1.6,3.7,2.1 c-0.1,0.8,0.5,1.5,0.8,2.2c0.8,1.7,1.3,3.6-0.4,5c-1.8,1.5-1.8,3.5-2.4,5.4c-1.5,5.2-3.4,10.2-8.2,13.4c-1.3,0.9-1.2,2.4,0.1,3.4 c0.9,0.6,2.1,0.8,3.1,1.2c0.9,0.4,2.7-0.8,2.7,1c0,1.6,1.1,3.7-1.1,4.9c-1.1,0.6-1.3,1.8-1.7,2.8c-0.6,1.5-1.5,3-3.1,3.4 c-3.5,0.8-3.8,3.1-3.5,5.9c0.2,2.1,0.6,4.3,0.8,6.4c0.2,1.7,0,3.9-2.1,3.8c-1.9-0.1-3-2.2-2.5-4.1c0.9-3.7,0.3-7.4,1-11.1 c0.2-1.5,0.7-3.2-1.5-3.4c-2.3-0.2-2.5,1.6-2.4,3.2c0.4,5.8,0.9,11.6,0.9,17.3c0,7.2,0.1,14.5-0.6,21.7c-0.6,5.3,0.2,10.6,0.4,15.8 c0.2,6.1-1,12.2-0.8,18.3c0.1,1.8-0.6,4-3,4.4c-2.5,0.4-2.7-2-3.6-3.4c-0.7-1.1-0.9-2.5-0.8-3.9c0.6-9.6-0.4-19.3,0.2-28.8 c0.8-13.6,0.3-27.1-0.2-40.7c0-1.4,0.1-2.9-1.2-4.3c-2.2,2-2,4.7-2.2,7.1c-0.5,4.5,0.6,9,0.7,13.5c0.2,5.1-1.1,10.1-0.5,15.2 c0.4,3.7-2.2,6.2-4.9,6c-1.2-0.1-1.8-0.7-2.1-1.8c-1.3-5.2-2.4-10.4-0.8-15.7c0.2-0.6,0.3-1.4,0.1-2c-2.1-6.3,0.2-12.7-0.7-19 c-0.2-1.4-0.3-2.9-0.7-4.3c-0.8-2.2-2.5-3.1-4.8-2.7c-2.4,0.3-2.4,2.1-2.2,3.9c0.7,7.6-0.8,15.1-0.4,22.7c0.1,2.1-1,4.4-3.5,4.6 c-2.9,0.2-3.6-2.2-3.9-4.6c-0.7-7.2,0.3-14.4,0.1-21.6c-0.1-2.3-0.6-3.4-3-3c-1,0.2-2,0-3.1,0c-2.1,0.1-3.6,0.8-3.6,3.4 c0.1,11.4-2.1,22.7-0.8,34.2c0.9,8.1-0.5,16.2-0.9,24.4c-0.1,1.1-0.4,2.3-0.2,3.4c1.2,9-0.5,18.1,0,27.1c0.2,4.7,1.7,9.3,1.3,14.1 c-0.5,6.3-1.1,12.6,0.6,18.9c0.5,1.8,0,3.8-0.2,5.7c-0.3,3.6-0.4,7.1,0.1,10.8c0.8,4.7-0.1,9.5-0.9,14.2c-0.6,3.5,0.7,7-0.8,10.4 c-0.7,1.6-1.5,2.7-3.3,2.8c-1.9,0.1-2.4-1.3-3-2.7c-1.7-3.8-1.6-7.7-0.9-11.6c0.3-2,0.7-4.2,0.2-6.1c-1-4,0-7.9,0.3-11.8 c0.5-6,0.7-11.8-0.6-17.8c-0.9-4-0.5-8.3-0.1-12.5c0.3-3.2,0.8-6.3-0.2-9.4c-1.8-5.6-0.1-11.2,0.2-16.8c0.1-2.4,0-4.7-0.2-7 c-0.4-4.8-0.6-9.6,0.5-14.4c0.6-2.5-0.9-4.9-0.5-7.4c1.4-9-1.4-18.1,0.1-27c1.3-7.8-1.1-15.5,0.4-23.3c0.3-1.6-0.1-3.5-0.7-5 c-0.7-1.6-1.8-3.4-3.3-4.2c-1.7-0.9-2.9,1.1-4,2.2c-1.3,1.4-3.6,0-4.8,1.9c-1.4,2.3-2.4,4.5-2,7.3c1.1,6.4-1.2,12.8-0.7,19.2 c0.1,1.8-1.4,2.2-2.5,2.8c-1.3,0.6-2-0.5-2.8-1.3c-1.2-1.3-1.5-2.9-1.5-4.7c0-5.8-0.2-11.6,0.1-17.3c0.2-3.3-2.1-4.8-3.9-6.7 c-0.7-0.8-1.7-0.5-2.3,0.4c-0.8,1.1-1.4,2.3-1.4,3.7c0,17.6,0,35.1,0,52.7c0,11.4-0.1,22.8-0.2,34.2c0,2,0.3,4.1,0.1,6.1 c-0.1,2.4-1,4.8-3.6,5c-2.6,0.1-3.3-2.1-3.9-4.5c-1.5-6.5,0.1-12.8,0-19.2c-0.1-5.4-0.5-10.8-0.8-16.1c-0.3-4.9-1.6-10.3,0.2-15.3 c0.7-1.9,0.6-4,0.7-6c0.3-12.5-0.1-24.9-2-37.2c-0.5-3-1.7-5.8-4.2-7.3c-2.5-1.5-7.4,1.8-8.1,5c-1.2,5.4-1.4,10.8-0.6,16.2 c0.8,5.1,0.6,10.2-0.2,15.2c-0.5,3.3-0.9,6.5-0.1,9.8c0.3,1.1-0.1,2.3-0.6,3.3c-0.7,1.5-1.3,3.4-3.4,3.4c-2.4,0-2.7-2.1-3.2-3.7 c-0.9-3-1-6.1-0.8-9.3c0.4-10.3,0.9-20.8-0.8-31c-0.4-2.6-1.6-5.5-5.2-5.6c-4-0.1-6.2,1.5-6.9,5.4c-1,6-0.8,12.1-0.5,18.1 c0.3,6,0.7,12-0.2,17.9c-0.6,4.3-0.5,8.6,0.4,12.8c0.1,0.5,0.2,1.1,0.2,1.7c0,13.3,0.2,26.6-0.1,40c-0.1,3.2-0.6,6.5-0.6,9.8 c0,1.9-0.6,3.9-2.9,4.5c-1.4,0.3-3.1,0-3.6-1.3c-0.8-2.1-1.6-4.5-1.2-6.5c0.8-4.2,0.3-8.1-0.2-12.3c-0.6-5.7,0.4-11.6,0.9-17.5 c0.1-1.4,0.6-2.8,0-4c-1.7-3.6-1.4-7.1-0.6-10.9c0.5-2.6,0.5-5.4-0.4-8.1c-0.8-2.3-0.8-4.5-0.2-7c1.4-6.5,1.5-13,0.1-19.5 c-0.4-2.2-0.6-4.4-0.1-6.7c0.8-3.9-2.1-7.5-1.5-11.6c0.1-0.7-1.1-0.8-1.7-0.5c-1.1,0.5-2.6,0.2-3,2.1c-1.3,6.4-1.1,12.8-0.4,19.3 c0.4,4.2,0.7,8.3,0,12.5c-0.3,1.9-0.4,3.9-0.2,5.8c0.7,9.3-0.3,18.5-0.3,27.8c-0.1,6.5,1.4,13,1.1,19.5c-0.6,11.2,0.5,22.5-1,33.8 c-0.3,2.2,0.4,4.3-0.6,6.6c-0.7,1.6-1.7,2-2.9,2.2c-1.4,0.2-2.4-0.7-3.2-2c-2.6-4.8-2.2-9.9-1.5-14.9c0.9-7,1.2-13.9-0.2-20.9 c-0.9-4.5,0.8-9,0.5-13.5c-0.1-1.9-0.1-3.8-0.6-5.7c-1.6-5.5,0.4-10.9,0.7-16.4c0.3-4,0.7-7.9-0.1-11.8c-1.3-6.2,1.3-12.4,0.1-18.6 c-1.1-5.5-0.7-11-0.7-16.6c0-2.9-1.3-5.5-2.4-8c-0.6-1.4-1.5-1.6-2.5-0.3c-1.1,1.4-2.3,2.9-3.8,3.8c-2.5,1.5-4.7,0.7-5.5-2.1 c-0.2-0.9-0.2-2-1.2-2.1c-1.1-0.1-1.2,1.1-1.7,1.8c-5,7.8-3.9,16.6-3.7,25c0.1,8.9,0.2,17.8-0.5,26.7c-0.5,6,1.9,11.9,0.9,17.9 c-1.2,7.5,0.2,15.1-1.3,22.6c-0.3,1.8-1.1,2.9-2.8,3.3c-2.2,0.5-2.7-1.4-3.3-2.7c-1-1.8-1.4-3.8-1.3-5.9c0.2-5.6-0.2-11.3,0.6-16.9 c0.8-5.7-1.5-11.5-0.5-17.2c1.3-8-1.3-16.2,1.1-24.2c0.2-0.6,0.1-1.4-0.1-2c-0.8-4-1.4-8-0.4-12.1c1.4-6-0.9-11.2-3.2-16.5 c-1.8-4.1-0.9-7.3,2.7-10.1c1.1-0.8,1.5-1.6,1-2.8c-2.1-5.4-4.3-10.8-8.1-15.2c-2.4-2.8-2.4-6.5-4.2-9.4c-1-1.5,0.6-1.6,1.6-1.6 c1.6,0.1,2.8,0,2.1-2.1c-0.1-0.4,0-1,0.5-1.1c5-0.9,1.1-2.4,0.3-3.7c-3.8-5.5-9-9.7-12.8-15.3c-3.2-4.6-7.5-8.5-11.1-12.9 c-6.6-8-13.5-15.8-20.3-23.7c-2.9-3.4-5.2-7.4-9.4-9.7c-2-1.1-4.4-1.3-6.3-3.1c-2.8-2.7-3.2-9.7,0.6-12.1c3-1.9,5.9-3.2,9.3-0.8 c2.9,2,4.6,4.5,4.2,8.1c-0.4,2.9,0.8,4.6,3.5,5.8c3.9,1.7,6.9,4.8,11,6.4c2.1,0.8,3.3,0.3,3.8-1.1c1-3.1,3.2-2.5,5.1-1.8 c2.3,0.9,4.5,2.1,4.6,5.1c0,0.5,0.4,1.3,0.8,1.5c3,1.4,3.5,4.4,3.8,7c0.5,5.6,4.4,8.4,8.4,11.1c4.7,3.1,9.7,5.4,15.1,6.9 c2.9,0.9,4.5,0.2,5.2-2.6c1-4.2,2.4-8.4,2.8-12.8c0.5-4.6,0.2-9.1-2.4-13c-1.9-2.9-1.9-6-1.8-9.1c0-0.6-0.3-1.4,0.4-1.8 c0.8-0.4,1.5,0.1,2.1,0.6c1.3,1.1,2.4,3.7,4.3,2.1c1.4-1.1,0.6-3.5,0-5.4c-2.5-7.9-4.7-15.8-5.5-24.1c-0.2-1.8-1.3-2.5-3.1-2.9 c-4.9-1.3-8.2-4.5-8.7-9.7c-0.4-4.3,0.8-8.1,4.8-10.8c4.3-2.9,11.3-0.6,13.1,4.4c1.2,3.3,1.7,6.4,0.3,9.8c-0.8,1.9-0.5,3.7,1.3,5.5 c4.2,4.3,6.6,9.8,9.3,15.1c3.3,6.6,7.1,12.9,11.3,18.9c4.5,6.5,8.5,13.4,13.8,19.4c2.2,2.5,5,4,7.7,5.7c0.6,0.4,1.4,0.5,1.8-0.2 c2.7-5.9,8.1-9.9,10.7-15.9c0.5-1.1,0.9-2.4,0.4-3.3c-1.6-3.4-0.1-6.4,0.7-9.5c1.5-5.4,0.1-10.8-0.1-16.1c-0.1-3,0.3-5.6,2.4-7.8 c0.7-0.8,1.1-1.9,1.5-3c0.9-3,2.2-5.3,6.1-4.3c2.4,0.6,2.6-1.4,3-3.1c1.2-5.4,2.4-10.9,3.8-16.2c0.6-2.3-0.1-4-1.8-5 c-4.4-2.6-6.2-8.3-5.3-12.8c1-4.6,4.4-8,10.9-9.2c4.4-0.8,7.8-0.5,10.7,3.2c2.6,3.4,3.5,10.7,0.4,13.4c-5.2,4.5-4.3,10.2-3.6,15.6 c0.6,4.9,1.3,10,4.1,14.5c0.3,0.5,0.5,1.3,0.4,2c-0.9,6.1,1.7,11.5,3.4,17c1.3,3.9,3.7,7.2,6.2,10.4c1.5,2,3.4,4.4,1,7.3 c-1.5,1.7-1.2,3.6-0.2,5.7c3.1,6.6,7.1,12.3,12.9,16.8c0.9,0.7,1.6,1.4,2.5,0.6c3.4-3.1,6.9-6.1,10-9.5c2.9-3.2,3.2-7.2,1.3-11.1 c-1.6-3.2-0.9-6,0.2-9.1c1.6-4.2,4.2-7.6,7.5-10.5c1.2-1,2.5-2.2,3-3.6c1.3-3.7,2.7-2,4.1-0.3c2.1,2.5,4.7,2.8,7.2,1.2 c5.1-3.2,8-8.3,10.6-13.4c0.5-1,1.1-2.3,1.7-3.2c2-3.1,3.9-5.7,1.5-9.9c-1.7-2.9,2.5-9.3,5.9-10.4c1.1-0.3,2.2-0.6,3.2-1.1 c6.2-2.7,10.6,0.3,12.6,6.9c1.9,5.9,0,10.3-5.2,13.4c-1.8,1.1-4.4-0.3-6.1,2.1c-0.6,0.8-1.7,1.7-1.7,2.6c0.3,4.9-2,9.5-1.6,14.4 c0.3,3.5-0.6,6.7-1.4,10c-2.3,8.7-4.4,17.5-3.3,26.6C329.5,179.4,330.4,184.9,333.2,190.7z M244.4,199.5 c-7.3,0.7-13.9,1.1-20.3,2.1c-7.8,1.3-15.6,2.7-23.3,3.8c-6.9,1-13.6,2.7-20.5,4c-5.3,1-10.8,2-15.9,4c-3.6,1.4-7.6,2.1-10.7,4.7 c-0.4,0.4-1,0.7-0.8,1.4c0.3,0.9,1.1,0.7,1.7,0.5c1.8-0.6,3.6-1.6,5.5-1.8c6.7-0.7,13.2-2.3,19.8-3.6c2.7-0.5,5.3-1.2,8-1.3 c7.7-0.2,15.3-1.4,22.8-2.4c11.9-1.6,23.8-1.9,35.7-2.2c4.3-0.1,8.6,0.2,12.9,0.5c2.3,0.1,4.4-1.1,6.7-0.6 c15.1,3.6,30.8,3.2,46,6.6c6.7,1.5,13.5,2.3,20.1,4.1c1,0.3,2.5,1.8,3.3,0.1c0.7-1.7-1.6-1.7-2.4-2.7c-0.2-0.3-0.8-0.5-1.2-0.6 c-6.1-1.5-11.8-4.4-18.2-5.5c-6.8-1.2-13.5-3.6-20.3-4.6c-6.1-0.9-12.3-1.6-18.2-2.9C264.7,200.8,254,201.9,244.4,199.5z M325.1,252.3c1.3-0.5,2.7,0.4,3.1-0.9c0.4-1.4-1.1-1.4-1.9-1.9c-0.7-0.4-1.4-0.6-2.2-0.9c-7.9-2.9-16.4-3.2-24.5-5.4 c-4.9-1.3-10.1-0.4-15.2-1.4c-5.8-1.2-11.8-2.1-17.8-2c-8,0.1-16.1-0.1-24.1-0.3c-10-0.2-19.9-0.1-29.8,0.9c-8.9,1-17.9,2-26.8,3.3 c-3.2,0.5-6.4,1.2-9.6,1.7c-4.7,0.8-9.6,1.4-14,3.4c-0.8,0.4-1.7,0.9-1.3,2c0.4,0.9,1.5,0.8,2.1,0.5c4-1.8,8.3-1.9,12.5-1.8 c9.7,0.2,19.2-2.6,29-2.3c7.1,0.2,14.2-0.9,21.2-0.9c9.8,0,19.6,0.2,29.4,0.8c11.9,0.7,24-0.4,35.9,1c4.3,0.5,8.6-0.5,12.8,0.7 C310.9,250.9,318.5,249.3,325.1,252.3z M247.9,175.4c-0.1-2-1.3-3.9-2.4-5.8c-0.8-1.3-1.6-3.2-3-3.2c-1.4,0-1.1,2.2-1.7,3.3 c-0.3,0.6-0.8,1.1-1.1,1.7c-1.5,2.8-3.1,5.6-3.6,8.9c-0.2,1.8-1,4.3,0.9,4.7c1.7,0.3,3.2-2,4.1-3.9c0.1-0.2,0-0.4,0-0.7 c0-1.3,0.6-1.5,1.8-1.1C245.9,180.5,248,179,247.9,175.4z M178.6,173.8c-0.3,0.2-0.5,0.3-0.8,0.5c0.5,1.3,0.8,2.7,1.4,4 c1.6,3.8,2.2,8,5.1,11.1c0.7,0.7,6.1,1.1,6.7,0.5c0.4-0.4,0.3-0.8,0-1.2C187.6,183.2,183.3,178.4,178.6,173.8z M309.4,175.3 c-1.2,0.8-2.5,1.4-3.3,2.4c-3.3,3.9-6.4,7.9-9.5,11.9c-1.2,1.5-0.2,1.9,1.2,2c3,0.2,7.4-3,8.7-5.7 C308.1,182.6,309.5,179.4,309.4,175.3z M158.2,224.8c0.1-1-0.3-1.8-1.4-1.8c-0.8,0-1.8,0.2-1.8,1c0,1.3,1.2,1.7,2.2,2 C158.1,226.3,158.1,225.4,158.2,224.8z" style="fill: inherit;"/><path d="M360,121.6c0.3,2.4-0.3,4.4-1.3,6.1c-0.6,1-1.5,2.3-2.9,1.7c-1.1-0.5-1.8-1.5-1.8-2.9c0-2.5,1.1-4.5,2.1-6.7 c0.5-1.1,1.6-1.5,2.8-1.2C361,119.1,359.7,120.8,360,121.6z" style="fill: inherit;"/><path d="M194.3,416.1c-0.3,1.9-0.3,3.9-2.6,3.8c-2.2-0.1-2.3-2.2-2-3.5c0.5-3.1,0.6-6.2,0.5-9.4c0-0.9,0.3-1.6,1.3-1.7 c1,0,0.7,0.9,0.9,1.5C192.9,409.9,193.1,413.2,194.3,416.1z" style="fill: inherit;"/><path d="M321.7,367.4c0-0.1,0-0.2,0-0.3c0.3-1.7-1.4-4.6,1.8-4.7c3-0.1,2,2.9,2.5,4.6c0.4,1.4,0.2,3.1,0.2,4.7 c0,1.1-0.1,2.3-1.8,2.2c-1.5,0-2.4-0.5-2.5-2.1C321.8,370.3,321.8,368.9,321.7,367.4C321.7,367.4,321.7,367.4,321.7,367.4z" style="fill: inherit;"/><path d="M255.4,335.8c-0.2,1.5-0.4,2.9-2.1,3.2c-1.8,0.3-2.4-1.2-2.5-2.5c-0.2-2.9-0.1-5.9-0.1-8.8c0-0.8,0.3-1.3,1.1-1.3 c0.6,0,1.4,0.2,1.4,0.8C253.2,330.3,255,332.9,255.4,335.8z" style="fill: inherit;"/><path d="M232.3,374.9c0.4-1.7,0-4.3,2.5-4.3c2.4-0.1,2.7,2.5,2.8,4.3c0.1,1.5-0.2,3.6-2.6,3.6C232.7,378.5,232.4,376.8,232.3,374.9 z" style="fill: inherit;"/></g></svg>